# xmcd
#
# Track frame offsets: 
#        150
#        17722
#        34083
#        51830
#        69833
#        91712
#        116726
#        133106
#        151401
#        168726
#        190785
#        214356
#        234292
#
# Disc length: 3314 seconds
#
# Revision: 0
# Processed by: cddbd v1.5.2PL0 Copyright (c) Steve Scherf et al.
# Submitted via: ExactAudioCopyFreeDBPlugin 1.0
#
DISCID=ac0cf00d
DTITLE=Scooter Brown Band - Valor
DYEAR=2013
DGENRE=Country
TTITLE0=Feels Like
TTITLE1=Battle
TTITLE2=Fireflies
TTITLE3=Summer Song
TTITLE4=Heart Of Stone
TTITLE5=Jam Song
TTITLE6=Valor
TTITLE7=Drink Fight Stomp
TTITLE8=Beautiful Night
TTITLE9=Home Again
TTITLE10=Devil
TTITLE11=Run
TTITLE12=Valor (Acoustic Bonus Track)
EXTD=
EXTT0=
EXTT1=
EXTT2=
EXTT3=
EXTT4=
EXTT5=
EXTT6=
EXTT7=
EXTT8=
EXTT9=
EXTT10=
EXTT11=
EXTT12=
PLAYORDER=
